<svg width="800" height="800" viewBox="0 0 800 800" fill="none" xmlns="http://www.w3.org/2000/svg">
<path d="M387.5 578.75V538.125C360 535 330.625 523.125 310 506.25L307.5 504.375L327.5 478.75L330 480.625C353.125 498.75 376.25 507.5 400 507.5C433.125 507.5 451.25 493.125 451.25 466.25C451.25 434.375 421.875 421.25 391.25 407.5C356.25 391.875 320.625 375.625 320.625 331.875C320.625 296.25 347.5 268.75 387.5 262.5V221.25H419.375V261.875C450.625 265.625 470 280 483.125 293.125L485.625 295.625L463.125 318.125L461.25 316.25C444.375 301.25 430.625 293.75 405.625 293.75C378.75 293.75 360.625 308.75 360.625 331.875C360.625 358.125 386.25 369.375 415.625 381.875C451.25 397.5 491.875 414.375 491.875 465.625C491.875 505 464.375 532.5 420 538.75V580H387.5V578.75Z" fill="#6C584C"/>
<path d="M400 725.625C220.625 725.625 74.375 579.375 74.375 400C74.375 220.625 220.625 74.375 400 74.375C579.375 74.375 725.625 220.625 725.625 400C725.625 579.375 579.375 725.625 400 725.625ZM400 107.5C238.75 107.5 107.5 238.75 107.5 400C107.5 561.25 238.75 692.5 400 692.5C561.25 692.5 692.5 561.25 692.5 400C692.5 238.75 561.25 107.5 400 107.5Z" fill="#6C584C"/>
<path d="M400 666.875C390.625 666.875 383.125 659.375 383.125 650C383.125 640.625 390.625 633.125 400 633.125C528.125 633.125 632.5 528.75 632.5 400.625C632.5 365 624.375 330.625 608.75 298.75C606.875 294.375 606.25 290 608.125 285.625C609.375 281.25 612.5 278.125 616.875 275.625C619.375 274.375 621.875 273.75 624.375 273.75C631.25 273.75 636.875 277.5 639.375 283.125C657.5 320 666.25 358.75 666.25 400C666.875 546.875 546.875 666.875 400 666.875ZM574.375 238.125C570 238.125 565.625 236.25 562.5 233.125C518.75 190.625 461.25 166.875 400 166.875C390.625 166.875 383.125 159.375 383.125 150C383.125 140.625 390.625 133.125 400 133.125C470 133.125 536.25 160 586.25 208.75C589.375 211.875 591.25 216.25 591.25 220.625C591.25 225 589.375 229.375 586.25 232.5C583.125 236.25 578.75 238.125 574.375 238.125ZM303.125 646.875C300.625 646.875 298.75 646.25 296.25 645.625C197.5 603.75 133.125 507.5 133.125 400C133.125 296.25 194.375 200.625 288.75 157.5C291.25 156.25 293.125 156.25 295.625 156.25C302.5 156.25 308.125 160 311.25 166.25C315 175 311.25 185 303.125 188.75C220.625 226.25 167.5 309.375 167.5 400C167.5 493.75 223.125 578.125 310 614.375C314.375 616.25 317.5 619.375 319.375 623.75C321.25 628.125 321.25 632.5 319.375 636.875C315.625 643.125 310 646.875 303.125 646.875Z" fill="#6C584C"/>
</svg>
