<svg width="800" height="800" viewBox="0 0 800 800" fill="none" xmlns="http://www.w3.org/2000/svg">
<path d="M448.75 461.25L446.25 466.875L447.5 473.125L475 578.75L481.25 605L503.125 589.375L593.75 525L598.125 521.875L600 516.875L771.875 81.875L778.75 64.375L761.25 57.5L651.875 14.375L635 8.125L628.125 24.375L448.75 461.25ZM639.375 48.75L748.75 91.875L738.125 68.125L566.25 503.125L572.5 495L481.875 559.375L510 570L483.75 464.375L483.125 476.25L662.5 38.75L639.375 48.75Z" fill="#6C584C"/>
<path d="M681.25 235.625L597.5 204.375C591.875 202.5 589.375 196.25 591.25 190.625L597.5 174.375C599.375 168.75 605.625 166.25 611.25 168.125L695 199.375C700.625 201.25 703.125 207.5 701.25 213.125L695 229.375C693.125 235 686.875 237.5 681.25 235.625ZM561.25 504.375L477.5 473.125C471.875 471.25 469.375 465 471.25 459.375L477.5 443.125C479.375 437.5 485.625 435 491.25 436.875L575 468.125C580.625 470 583.125 476.25 581.25 481.875L575 498.125C573.125 503.75 566.875 506.25 561.25 504.375ZM703.75 175L620 143.75C614.375 141.875 611.875 135.625 613.75 130L620 113.75C621.875 108.125 628.125 105.625 633.75 107.5L717.5 138.75C723.125 140.625 725.625 146.875 723.75 152.5L717.5 168.75C715.625 174.375 709.375 177.5 703.75 175Z" fill="#6C584C"/>
<path d="M726.875 754.375H62.5C38.125 754.375 18.75 735 18.75 710.625V226.875C18.75 202.5 38.125 183.125 62.5 183.125H512.5C523.125 183.125 531.25 191.25 531.25 201.875C531.25 212.5 523.125 220.625 512.5 220.625H62.5C59.375 220.625 56.25 223.75 56.25 226.875V710.625C56.25 713.75 59.375 716.875 62.5 716.875H726.875C730 716.875 733.125 713.75 733.125 710.625V250C733.125 239.375 741.25 231.25 751.875 231.25C762.5 231.25 770.625 239.375 770.625 250V710.625C770.625 735 751.25 754.375 726.875 754.375Z" fill="#6C584C"/>
<path d="M286.25 383.125H157.5C146.875 383.125 137.5 374.375 137.5 363.125C137.5 352.5 146.25 343.125 157.5 343.125H286.875C297.5 343.125 306.875 351.875 306.875 363.125C306.25 374.375 297.5 383.125 286.25 383.125ZM320 456.25H157.5C146.875 456.25 137.5 447.5 137.5 436.25C137.5 425.625 146.25 416.25 157.5 416.25H320C330.625 416.25 340 425 340 436.25C339.375 447.5 330.625 456.25 320 456.25ZM345 528.75H157.5C146.875 528.75 137.5 520 137.5 508.75C137.5 498.125 146.25 488.75 157.5 488.75H345C355.625 488.75 365 497.5 365 508.75C364.375 520 355.625 528.75 345 528.75Z" fill="#6C584C"/>
</svg>
