<svg width="800" height="800" viewBox="0 0 800 800" fill="none" xmlns="http://www.w3.org/2000/svg">
<path d="M621.314 636.691C590.17 636.691 560.584 613.723 551.241 584.526C546.959 571.679 547.737 557.664 551.63 544.818C555.134 531.971 562.53 519.903 572.652 510.949C585.888 498.881 603.406 491.873 621.703 491.873C661.8 491.873 694.112 524.574 694.112 564.282C694.112 603.99 661.411 636.691 621.314 636.691ZM621.314 514.842C594.063 514.842 572.263 537.032 572.263 563.893C572.263 590.754 594.453 612.944 621.314 612.944C648.565 612.944 670.365 590.754 670.365 563.893C670.365 537.032 648.565 514.842 621.314 514.842ZM158.054 632.019C117.956 632.019 85.6448 599.319 85.6448 559.611C85.6448 519.903 118.346 487.202 158.054 487.202C198.151 487.202 230.462 519.903 230.462 559.611C230.462 599.319 198.151 632.019 158.054 632.019ZM158.054 510.17C130.803 510.17 109.002 532.36 109.002 559.611C109.002 586.861 131.192 608.662 158.054 608.662C185.304 608.662 207.105 586.472 207.105 559.611C207.105 532.36 185.304 510.17 158.054 510.17ZM367.883 347.445C357.372 347.445 347.64 341.606 342.968 331.873C338.297 341.217 328.564 347.445 318.054 347.445H161.946C145.596 347.445 137.81 340.049 134.307 333.82C129.635 325.645 130.414 314.745 135.864 305.791L177.518 221.703C181.022 213.139 192.311 203.017 212.165 203.017H318.054C328.564 203.017 338.297 208.856 342.968 218.589C347.64 209.246 357.372 203.017 367.883 203.017H397.47C412.652 203.017 425.11 215.474 425.499 230.657V319.416C425.499 334.599 413.041 347.056 397.47 347.445H367.883ZM367.883 226.375C365.547 226.375 363.601 228.321 363.601 230.657V319.416C363.601 321.752 365.547 323.698 367.883 323.698H397.47C399.805 323.698 402.141 321.752 402.141 319.416V231.046C402.141 228.71 400.195 226.764 397.47 226.764H367.883V226.375ZM212.555 226.375C202.044 226.375 199.319 231.046 199.319 231.046L156.496 317.08C154.55 320.195 154.939 322.141 154.939 322.53C155.328 322.92 157.275 324.088 161.946 324.088H318.054C320.389 324.088 322.336 322.141 322.336 319.805V231.046C322.336 228.71 320.389 226.764 318.054 226.764H212.555V226.375Z" fill="black"/>
<path d="M621.314 635.912C592.506 635.912 565.645 618.005 554.745 591.144C553.187 586.861 551.241 582.579 550.073 577.908C548.905 573.236 549.294 568.564 549.294 563.893C549.294 524.185 581.606 491.873 620.925 491.873C660.633 491.873 692.944 524.185 692.944 563.893C692.944 603.601 661.022 635.912 621.314 635.912ZM621.314 514.063C593.674 514.063 571.484 536.642 571.484 563.893C571.484 591.533 593.674 613.723 621.314 613.723C648.954 613.723 671.144 591.144 671.144 563.893C671.144 536.642 648.954 514.063 621.314 514.063ZM158.054 631.241C118.345 631.241 86.0341 598.929 86.0341 559.221C86.0341 519.513 118.345 487.202 158.054 487.202C197.762 487.202 229.684 519.903 229.684 559.611C229.684 599.319 197.762 631.241 158.054 631.241ZM158.054 509.392C130.414 509.392 108.224 531.971 108.224 559.221C108.224 586.472 130.803 609.051 158.054 609.051C185.693 609.051 207.883 586.472 207.883 559.221C207.883 531.971 185.693 509.392 158.054 509.392ZM367.883 346.667C356.594 346.667 347.251 340.049 342.968 330.316C338.686 340.049 329.343 346.667 318.054 346.667H161.946C145.596 346.667 138.2 339.659 135.085 333.431C130.803 325.255 131.192 314.745 136.642 306.18L178.297 222.092C181.8 213.528 192.701 203.796 212.165 203.796H318.054C329.343 203.796 338.686 210.414 342.968 220.146C347.251 210.414 356.594 203.796 367.883 203.796H397.47C412.263 203.796 424.72 215.864 424.72 231.046V319.805C424.72 334.599 412.652 347.056 397.47 347.056H367.883V346.667ZM367.883 225.596C365.158 225.596 362.822 227.932 362.822 230.657V319.416C362.822 322.141 365.158 324.477 367.883 324.477H397.47C400.195 324.477 402.53 322.141 402.53 319.416V231.046C402.53 228.321 400.195 225.985 397.47 225.985H367.883V225.596ZM212.555 225.596C201.265 225.596 198.929 230.657 198.54 230.657L155.718 316.691C153.771 319.805 153.771 322.141 154.161 322.92C154.55 323.698 156.886 324.866 161.946 324.866H318.054C320.779 324.866 323.114 322.53 323.114 319.805V231.046C323.114 228.321 320.779 225.985 318.054 225.985H212.555V225.596Z" fill="#6C584C"/>
<path d="M705.791 549.878C700.73 549.878 696.058 546.375 694.501 541.703C684.769 509.002 654.015 486.423 620.146 486.423C585.888 486.423 555.523 509.002 545.791 541.703C544.234 546.764 539.951 549.878 534.501 549.878H491.679C476.496 549.878 464.039 537.421 463.65 521.849V410.122C463.65 394.939 476.107 382.482 491.29 382.092H750.17C765.353 382.092 777.81 394.55 778.199 409.732V521.849C778.199 537.032 765.742 549.489 750.17 549.878H705.791ZM750.949 526.521C753.285 526.521 755.231 524.574 755.231 522.238V410.122C755.231 407.786 753.285 405.45 750.56 405.45H491.679C489.343 405.45 487.397 407.397 487.397 410.122V522.238C487.397 524.574 489.343 526.521 491.679 526.521H525.937C541.119 488.37 578.881 462.676 619.757 462.676C660.633 462.676 698.394 488.37 713.577 526.521H750.949ZM239.416 549.878C233.966 549.878 229.294 546.375 228.127 540.925C227.737 539.757 227.737 538.2 227.348 536.642C224.623 521.46 218.005 486.034 158.443 484.088H154.55C95.3771 484.088 92.6521 530.414 92.6521 532.36C92.6521 536.253 90.3163 540.146 86.8127 542.092L77.4696 547.543C74.3552 549.489 70.4623 550.268 66.1801 550.268C51.7762 550.268 30.7543 539.367 28.4185 538.2C24.5256 536.253 22.1898 532.36 22.1898 527.689V469.684C22.1898 466.569 23.3577 463.455 25.6934 461.509L41.2652 445.937V357.956C41.2652 349.392 49.0511 339.659 55.2798 332.652C105.888 263.747 168.175 179.659 175.182 174.599C183.358 168.759 195.036 164.477 196.204 164.088C197.762 163.698 199.319 163.309 200.097 163.309L430.17 163.698C431.338 163.309 432.506 163.309 434.453 163.309C436.399 163.309 438.735 163.309 441.849 163.698C455.864 165.255 460.925 177.713 461.703 183.942V537.81C461.703 544.428 456.642 549.489 450.024 549.489H239.416V549.878ZM45.1582 520.292C54.1119 524.185 61.5085 526.521 65.7908 526.521H66.1801L69.6837 524.185C72.4088 508.613 87.2019 460.341 153.771 460.341H159.221C209.44 462.287 239.805 484.088 249.148 526.131H438.735V187.056H435.231C434.842 187.445 433.674 187.445 432.895 187.445H431.728L202.433 186.667C198.151 188.224 192.311 190.949 188.808 193.674C182.968 199.124 117.956 286.326 73.1874 347.445L72.0195 348.613C67.7372 352.895 64.6229 357.956 63.8443 359.124V450.608C63.8443 453.723 62.6764 456.837 60.3406 458.783L44.7689 474.355V520.292H45.1582Z" fill="#6C584C"/>
</svg>
