<svg width="790" height="790" viewBox="0 0 790 790" fill="none" xmlns="http://www.w3.org/2000/svg">
<path d="M395 790C177.5 790 0.625 612.5 0.625 395C0.625 177.5 177.5 0 395 0C612.5 0 790 176.875 790 395C790 613.125 613.125 790 395 790ZM395 37.5C198.125 37.5 38.125 198.125 38.125 395C38.125 591.875 198.125 752.5 395.625 752.5C593.125 752.5 753.125 592.5 753.125 395C753.125 197.5 592.5 37.5 395 37.5ZM370.625 546.875H366.25V546.25H363.75L362.5 545.625C361.875 545.625 361.875 545.625 361.25 545H360L359.375 544.375L357.5 543.75L356.25 542.5L198.125 409.375C194.375 406.25 191.875 401.875 191.25 396.875C190.625 391.875 192.5 386.875 195.625 383.125C199.375 378.75 204.375 376.25 210 376.25C214.375 376.25 218.75 378.125 221.875 380.625L366.875 503.125L598.75 271.25C602.5 267.5 606.875 265.625 611.875 265.625C616.875 265.625 621.875 267.5 625 271.25C628.75 275 630.625 279.375 630.625 284.375C630.625 289.375 628.75 294.375 625 297.5L381.25 541.25L379.375 542.5L378.75 543.125C378.125 543.75 377.5 543.75 376.875 544.375C376.875 545 376.875 545 376.25 545L375.625 545.625C375 545.625 373.75 546.25 373.75 546.25C373.125 546.25 373.125 546.25 372.5 546.875H370.625Z" fill="#6C584C"/>
</svg>
