<svg width="270" height="90" viewBox="0 0 270 90" fill="none" xmlns="http://www.w3.org/2000/svg">
<path d="M29.8022 54.3073C26.4162 54.3073 23.7892 53.2419 21.9211 51.1112C20.0724 48.957 19.1481 45.8663 19.1481 41.839C19.1481 37.7883 20.053 34.6975 21.8627 32.5668C23.6919 30.4361 26.2995 29.3707 29.6854 29.3707C31.1059 29.3707 32.3902 29.5463 33.5384 29.8976C34.7059 30.2254 35.6886 30.7054 36.4865 31.3376C36.6811 31.5014 36.7784 31.6888 36.7784 31.8995C36.7784 32.0869 36.72 32.2859 36.6032 32.4966L35.5816 34.639C35.4454 34.8966 35.3092 35.0254 35.173 35.0254C35.0562 35.0254 34.8908 34.9551 34.6768 34.8146C33.4314 33.9717 31.9622 33.5502 30.2692 33.5502C28.2649 33.5502 26.7081 34.2527 25.5989 35.6576C24.4897 37.0391 23.9351 39.0995 23.9351 41.839C23.9351 44.6019 24.5092 46.6741 25.6573 48.0556C26.8249 49.4371 28.4108 50.1278 30.4151 50.1278C32.2443 50.1278 33.7817 49.7063 35.027 48.8634C35.2411 48.7229 35.4065 48.6527 35.5232 48.6527C35.6594 48.6527 35.7957 48.7814 35.9319 49.039L37.0703 51.3922C37.1481 51.5561 37.187 51.6965 37.187 51.8137C37.187 51.9541 37.0703 52.1298 36.8368 52.3405C35.3189 53.6517 32.974 54.3073 29.8022 54.3073ZM45.7924 54.3073C43.2043 54.3073 41.1902 53.5113 39.7502 51.919C38.3297 50.3034 37.6194 48.1141 37.6194 45.3512C37.6194 42.5883 38.3297 40.4108 39.7502 38.8185C41.1902 37.2029 43.2043 36.3951 45.7924 36.3951C48.4 36.3951 50.414 37.2029 51.8345 38.8185C53.2746 40.4108 53.9945 42.5883 53.9945 45.3512C53.9945 48.1141 53.2746 50.3034 51.8345 51.919C50.414 53.5113 48.4 54.3073 45.7924 54.3073ZM45.7924 50.1278C46.9016 50.1278 47.748 49.7297 48.3318 48.9337C48.9156 48.1376 49.2075 46.9435 49.2075 45.3512C49.2075 43.7825 48.9156 42.6 48.3318 41.8039C47.748 41.0078 46.9016 40.6098 45.7924 40.6098C44.7026 40.6098 43.8659 41.0078 43.2821 41.8039C42.6983 42.6 42.4064 43.7825 42.4064 45.3512C42.4064 46.92 42.6983 48.1141 43.2821 48.9337C43.8659 49.7297 44.7026 50.1278 45.7924 50.1278ZM57.7029 53.7805C57.2359 53.7805 56.8954 53.6634 56.6813 53.4293C56.4867 53.1717 56.3894 52.7853 56.3894 52.2702V31.4429C56.3894 30.9278 56.4867 30.5415 56.6813 30.2839C56.8954 30.0263 57.2359 29.8976 57.7029 29.8976H59.8921C60.3786 29.8976 60.7192 30.0263 60.9137 30.2839C61.1083 30.518 61.2056 30.9044 61.2056 31.4429V52.2702C61.2056 52.7853 61.1083 53.1717 60.9137 53.4293C60.7192 53.6634 60.3786 53.7805 59.8921 53.7805H57.7029ZM65.4849 53.7805C65.0178 53.7805 64.6772 53.6634 64.4632 53.4293C64.2686 53.1717 64.1713 52.7853 64.1713 52.2702V31.4429C64.1713 30.9278 64.2686 30.5415 64.4632 30.2839C64.6772 30.0263 65.0178 29.8976 65.4849 29.8976H67.674C68.1605 29.8976 68.501 30.0263 68.6957 30.2839C68.8902 30.518 68.9876 30.9044 68.9876 31.4429V52.2702C68.9876 52.7853 68.8902 53.1717 68.6957 53.4293C68.501 53.6634 68.1605 53.7805 67.674 53.7805H65.4849ZM79.6883 54.3073C78.1121 54.3073 76.6916 53.9912 75.4267 53.359C74.1813 52.7035 73.1889 51.7317 72.4494 50.4439C71.7294 49.1326 71.3694 47.517 71.3694 45.5971C71.3694 42.6 72.0505 40.317 73.4126 38.7483C74.7943 37.1795 76.7596 36.3951 79.3088 36.3951C81.8191 36.3951 83.7164 37.1561 85.0007 38.6781C86.3045 40.2 86.9564 42.3659 86.9564 45.1756C86.9564 46.159 86.5867 46.6507 85.8472 46.6507H75.9229C75.9229 47.9151 76.3121 48.8985 77.0905 49.601C77.8883 50.28 78.978 50.6195 80.3597 50.6195C81.177 50.6195 81.8873 50.5259 82.4905 50.3385C83.0937 50.1278 83.6775 49.8351 84.2418 49.4605C84.4364 49.3434 84.5727 49.2849 84.6505 49.2849C84.7867 49.2849 84.9132 49.4136 85.0299 49.6712L85.8764 51.5678C85.9542 51.7317 85.9932 51.8722 85.9932 51.9893C85.9932 52.1766 85.8862 52.3639 85.6721 52.5512C84.8937 53.16 84.0181 53.6049 83.0451 53.8859C82.0721 54.1668 80.9532 54.3073 79.6883 54.3073ZM82.6364 43.6302C82.6364 42.4595 82.3639 41.5463 81.8191 40.8907C81.2743 40.2352 80.4472 39.9073 79.338 39.9073C78.2288 39.9073 77.3824 40.2468 76.7986 40.9259C76.2148 41.5814 75.9229 42.483 75.9229 43.6302H82.6364ZM97.1352 54.3073C94.469 54.3073 92.4066 53.5464 90.9467 52.0244C89.4872 50.479 88.7575 48.2663 88.7575 45.3863C88.7575 43.6069 89.0883 42.038 89.7499 40.68C90.431 39.322 91.4041 38.2683 92.6693 37.519C93.9335 36.7697 95.4222 36.3951 97.1352 36.3951C98.3995 36.3951 99.4795 36.5474 100.375 36.8517C101.27 37.1561 102.087 37.6126 102.827 38.2215C103.021 38.3853 103.119 38.5727 103.119 38.7834C103.119 38.9708 103.061 39.1698 102.944 39.3805L101.951 41.4527C101.815 41.7337 101.679 41.8741 101.543 41.8741C101.445 41.8741 101.28 41.7922 101.047 41.6283C100.482 41.2068 99.9374 40.8907 99.412 40.68C98.8866 40.4693 98.2535 40.3639 97.5147 40.3639C96.2887 40.3639 95.3155 40.8205 94.5958 41.7337C93.8952 42.6234 93.545 43.841 93.545 45.3863C93.545 47.0253 93.8952 48.2546 94.5958 49.0741C95.3155 49.8937 96.3471 50.3034 97.6898 50.3034C98.4287 50.3034 99.0708 50.198 99.6163 49.9873C100.18 49.7532 100.726 49.4371 101.251 49.039C101.484 48.8752 101.65 48.7932 101.747 48.7932C101.883 48.7932 102.019 48.9337 102.156 49.2146L103.236 51.4273C103.332 51.6147 103.382 51.7668 103.382 51.8839C103.382 52.0713 103.265 52.2585 103.031 52.4459C102.214 53.078 101.338 53.5464 100.404 53.8507C99.4895 54.1551 98.3995 54.3073 97.1352 54.3073ZM112.648 54.3073C110.877 54.3073 109.534 53.722 108.62 52.5512C107.705 51.3805 107.248 49.7648 107.248 47.7044V40.9961H105.818C105.351 40.9961 105.039 40.8907 104.884 40.68C104.728 40.4693 104.651 40.0947 104.651 39.5561V38.3971C104.651 37.8585 104.728 37.4839 104.884 37.2732C105.039 37.0391 105.351 36.922 105.818 36.922H107.248V35.5171C107.248 35.002 107.336 34.4985 107.511 34.0068C107.705 33.4917 107.978 32.8595 108.328 32.1102C108.483 31.7824 108.629 31.5717 108.766 31.478C108.902 31.3609 109.146 31.3024 109.496 31.3024H110.839C111.286 31.3024 111.598 31.4195 111.773 31.6537C111.967 31.8878 112.065 32.2625 112.065 32.7776V36.922H114.954C115.421 36.922 115.732 37.0391 115.888 37.2732C116.043 37.4839 116.122 37.8585 116.122 38.3971V39.5561C116.122 40.0947 116.043 40.4693 115.888 40.68C115.732 40.8907 115.421 40.9961 114.954 40.9961H112.065V47.5639C112.065 48.4771 112.201 49.1326 112.473 49.5307C112.745 49.9288 113.203 50.1278 113.845 50.1278C114.234 50.1278 114.555 50.0693 114.808 49.9522C115.08 49.8351 115.382 49.6478 115.713 49.3902C115.868 49.2731 115.985 49.2146 116.064 49.2146C116.239 49.2146 116.385 49.3434 116.501 49.601L117.581 51.8137C117.678 52.001 117.727 52.1531 117.727 52.2702C117.727 52.4341 117.611 52.6097 117.377 52.7971C116.151 53.8039 114.575 54.3073 112.648 54.3073ZM121.308 34.5688C120.763 34.5688 120.335 34.3814 120.024 34.0068C119.712 33.6322 119.557 33.1756 119.557 32.6371V31.8293C119.557 31.2907 119.712 30.8341 120.024 30.4595C120.335 30.0849 120.763 29.8976 121.308 29.8976H123.001C123.565 29.8976 124.003 30.0849 124.315 30.4595C124.626 30.8341 124.782 31.2907 124.782 31.8293V32.6371C124.782 33.1756 124.626 33.6322 124.315 34.0068C124.003 34.3814 123.565 34.5688 123.001 34.5688H121.308ZM121.075 53.7805C120.588 53.7805 120.248 53.6634 120.053 53.4293C119.858 53.1717 119.761 52.7853 119.761 52.2702V38.4673C119.761 37.9287 119.858 37.5424 120.053 37.3083C120.248 37.0507 120.588 36.922 121.075 36.922H123.235C123.721 36.922 124.061 37.0507 124.257 37.3083C124.47 37.5659 124.578 37.9522 124.578 38.4673V52.2702C124.578 52.7853 124.47 53.1717 124.257 53.4293C124.061 53.6634 123.721 53.7805 123.235 53.7805H121.075ZM135.356 54.3073C132.767 54.3073 130.753 53.5113 129.314 51.919C127.892 50.3034 127.183 48.1141 127.183 45.3512C127.183 42.5883 127.892 40.4108 129.314 38.8185C130.753 37.2029 132.767 36.3951 135.356 36.3951C137.963 36.3951 139.977 37.2029 141.398 38.8185C142.837 40.4108 143.558 42.5883 143.558 45.3512C143.558 48.1141 142.837 50.3034 141.398 51.919C139.977 53.5113 137.963 54.3073 135.356 54.3073ZM135.356 50.1278C136.465 50.1278 137.311 49.7297 137.895 48.9337C138.479 48.1376 138.771 46.9435 138.771 45.3512C138.771 43.7825 138.479 42.6 137.895 41.8039C137.311 41.0078 136.465 40.6098 135.356 40.6098C134.266 40.6098 133.429 41.0078 132.845 41.8039C132.262 42.6 131.97 43.7825 131.97 45.3512C131.97 46.92 132.262 48.1141 132.845 48.9337C133.429 49.7297 134.266 50.1278 135.356 50.1278ZM147.295 53.7805C146.809 53.7805 146.459 53.6634 146.244 53.4293C146.05 53.1717 145.952 52.7853 145.952 52.2702V37.9405C145.952 37.5424 146.011 37.2732 146.127 37.1327C146.244 36.9922 146.478 36.922 146.828 36.922H149.163C149.397 36.922 149.572 36.9688 149.689 37.0624C149.805 37.1561 149.874 37.32 149.893 37.5541L149.98 38.7834C150.583 38.0341 151.342 37.4488 152.257 37.0273C153.172 36.6059 154.213 36.3951 155.38 36.3951C156.976 36.3951 158.251 36.9219 159.204 37.9756C160.177 39.0059 160.664 40.5513 160.664 42.6117V52.2702C160.664 52.7853 160.557 53.1717 160.343 53.4293C160.148 53.6634 159.817 53.7805 159.35 53.7805H157.161C156.675 53.7805 156.325 53.6634 156.11 53.4293C155.916 53.1717 155.818 52.7853 155.818 52.2702V42.9629C155.818 42.0498 155.653 41.3942 155.322 40.9961C154.991 40.598 154.446 40.399 153.687 40.399C152.87 40.399 152.18 40.6683 151.615 41.2068C151.05 41.7219 150.769 42.401 150.769 43.2439V52.2702C150.769 52.7853 150.671 53.1717 150.477 53.4293C150.282 53.6634 149.941 53.7805 149.455 53.7805H147.295Z" fill="#FCB839"/>
<path d="M173.924 54.3073C170.538 54.3073 167.911 53.2419 166.043 51.1112C164.194 48.957 163.27 45.8663 163.27 41.839C163.27 37.7883 164.175 34.6975 165.984 32.5668C167.813 30.4361 170.421 29.3707 173.807 29.3707C175.227 29.3707 176.512 29.5463 177.66 29.8976C178.828 30.2254 179.81 30.7054 180.608 31.3376C180.802 31.5014 180.9 31.6888 180.9 31.8995C180.9 32.0869 180.842 32.2859 180.725 32.4966L179.703 34.639C179.567 34.8966 179.431 35.0254 179.295 35.0254C179.178 35.0254 179.013 34.9551 178.798 34.8146C177.553 33.9717 176.084 33.5502 174.391 33.5502C172.387 33.5502 170.83 34.2527 169.721 35.6576C168.611 37.0391 168.057 39.0995 168.057 41.839C168.057 44.6019 168.631 46.6741 169.779 48.0556C170.947 49.4371 172.533 50.1278 174.537 50.1278C176.366 50.1278 177.904 49.7063 179.149 48.8634C179.363 48.7229 179.528 48.6527 179.645 48.6527C179.781 48.6527 179.918 48.7814 180.054 49.039L181.192 51.3922C181.269 51.5561 181.309 51.6965 181.309 51.8137C181.309 51.9541 181.192 52.1298 180.958 52.3405C179.441 53.6517 177.095 54.3073 173.924 54.3073ZM189.914 54.3073C187.326 54.3073 185.312 53.5113 183.872 51.919C182.452 50.3034 181.741 48.1141 181.741 45.3512C181.741 42.5883 182.452 40.4108 183.872 38.8185C185.312 37.2029 187.326 36.3951 189.914 36.3951C192.522 36.3951 194.536 37.2029 195.956 38.8185C197.396 40.4108 198.116 42.5883 198.116 45.3512C198.116 48.1141 197.396 50.3034 195.956 51.919C194.536 53.5113 192.522 54.3073 189.914 54.3073ZM189.914 50.1278C191.023 50.1278 191.87 49.7297 192.453 48.9337C193.037 48.1376 193.329 46.9435 193.329 45.3512C193.329 43.7825 193.037 42.6 192.453 41.8039C191.87 41.0078 191.023 40.6098 189.914 40.6098C188.824 40.6098 187.988 41.0078 187.404 41.8039C186.82 42.6 186.528 43.7825 186.528 45.3512C186.528 46.92 186.82 48.1141 187.404 48.9337C187.988 49.7297 188.824 50.1278 189.914 50.1278ZM201.854 53.7805C201.367 53.7805 201.017 53.6634 200.803 53.4293C200.608 53.1717 200.512 52.7853 200.512 52.2702V37.9405C200.512 37.5424 200.57 37.2732 200.687 37.1327C200.803 36.9922 201.037 36.922 201.387 36.922H203.722C203.956 36.922 204.121 36.9688 204.219 37.0624C204.335 37.1561 204.403 37.32 204.423 37.5541L204.54 38.6781C205.707 37.1561 207.167 36.3951 208.918 36.3951C209.482 36.3951 209.94 36.4536 210.29 36.5707C210.659 36.6644 210.98 36.8283 211.253 37.0624C211.428 37.2263 211.516 37.3903 211.516 37.5541C211.516 37.6244 211.496 37.7298 211.457 37.8702L210.728 40.5044C210.649 40.7854 210.523 40.9259 210.348 40.9259C210.27 40.9259 210.173 40.8907 210.056 40.8205C209.55 40.5161 208.966 40.3639 208.305 40.3639C207.448 40.3639 206.738 40.6566 206.174 41.242C205.61 41.8273 205.328 42.6117 205.328 43.5951V52.2702C205.328 52.7853 205.23 53.1717 205.036 53.4293C204.841 53.6634 204.5 53.7805 204.014 53.7805H201.854ZM214.681 53.7805C214.195 53.7805 213.845 53.6634 213.63 53.4293C213.436 53.1717 213.338 52.7853 213.338 52.2702V37.9405C213.338 37.5424 213.397 37.2732 213.513 37.1327C213.63 36.9922 213.864 36.922 214.214 36.922H216.549C216.783 36.922 216.958 36.9688 217.075 37.0624C217.191 37.1561 217.26 37.32 217.279 37.5541L217.366 38.7834C217.969 38.0341 218.728 37.4488 219.643 37.0273C220.558 36.6059 221.599 36.3951 222.766 36.3951C224.362 36.3951 225.637 36.9219 226.59 37.9756C227.563 39.0059 228.05 40.5513 228.05 42.6117V52.2702C228.05 52.7853 227.943 53.1717 227.729 53.4293C227.534 53.6634 227.203 53.7805 226.736 53.7805H224.547C224.061 53.7805 223.711 53.6634 223.496 53.4293C223.302 53.1717 223.204 52.7853 223.204 52.2702V42.9629C223.204 42.0498 223.039 41.3942 222.708 40.9961C222.377 40.598 221.832 40.399 221.073 40.399C220.256 40.399 219.566 40.6683 219.001 41.2068C218.436 41.7219 218.155 42.401 218.155 43.2439V52.2702C218.155 52.7853 218.057 53.1717 217.863 53.4293C217.668 53.6634 217.327 53.7805 216.841 53.7805H214.681ZM238.604 54.3073C237.028 54.3073 235.607 53.9912 234.343 53.359C233.097 52.7035 232.104 51.7317 231.365 50.4439C230.645 49.1326 230.285 47.517 230.285 45.5971C230.285 42.6 230.966 40.317 232.329 38.7483C233.71 37.1795 235.675 36.3951 238.225 36.3951C240.735 36.3951 242.632 37.1561 243.917 38.6781C245.22 40.2 245.872 42.3659 245.872 45.1756C245.872 46.159 245.502 46.6507 244.763 46.6507H234.839C234.839 47.9151 235.227 48.8985 236.006 49.601C236.804 50.28 237.894 50.6195 239.276 50.6195C240.093 50.6195 240.803 50.5259 241.406 50.3385C242.009 50.1278 242.593 49.8351 243.158 49.4605C243.352 49.3434 243.488 49.2849 243.566 49.2849C243.702 49.2849 243.829 49.4136 243.946 49.6712L244.792 51.5678C244.87 51.7317 244.909 51.8722 244.909 51.9893C244.909 52.1766 244.802 52.3639 244.588 52.5512C243.809 53.16 242.933 53.6049 241.961 53.8859C240.988 54.1668 239.869 54.3073 238.604 54.3073ZM241.552 43.6302C241.552 42.4595 241.28 41.5463 240.735 40.8907C240.19 40.2352 239.363 39.9073 238.254 39.9073C237.145 39.9073 236.298 40.2468 235.715 40.9259C235.131 41.5814 234.839 42.483 234.839 43.6302H241.552ZM249.6 53.7805C249.113 53.7805 248.763 53.6634 248.549 53.4293C248.354 53.1717 248.257 52.7853 248.257 52.2702V37.9405C248.257 37.5424 248.315 37.2732 248.432 37.1327C248.549 36.9922 248.782 36.922 249.132 36.922H251.468C251.701 36.922 251.867 36.9688 251.964 37.0624C252.081 37.1561 252.149 37.32 252.168 37.5541L252.285 38.6781C253.452 37.1561 254.912 36.3951 256.663 36.3951C257.228 36.3951 257.685 36.4536 258.035 36.5707C258.406 36.6644 258.727 36.8283 258.998 37.0624C259.174 37.2263 259.261 37.3903 259.261 37.5541C259.261 37.6244 259.242 37.7298 259.203 37.8702L258.473 40.5044C258.395 40.7854 258.269 40.9259 258.094 40.9259C258.016 40.9259 257.918 40.8907 257.802 40.8205C257.296 40.5161 256.713 40.3639 256.05 40.3639C255.195 40.3639 254.484 40.6566 253.92 41.242C253.356 41.8273 253.073 42.6117 253.073 43.5951V52.2702C253.073 52.7853 252.976 53.1717 252.781 53.4293C252.587 53.6634 252.247 53.7805 251.759 53.7805H249.6Z" fill="#6C584C"/>
</svg>
