<svg width="248" height="90" viewBox="0 0 248 90" fill="none" xmlns="http://www.w3.org/2000/svg">
<path d="M27.3738 54.3073C24.2638 54.3073 21.8508 53.2419 20.1349 51.1112C18.4369 48.957 17.5879 45.8663 17.5879 41.839C17.5879 37.7883 18.419 34.6975 20.0813 32.5668C21.7614 30.4361 24.1565 29.3707 27.2666 29.3707C28.5714 29.3707 29.751 29.5463 30.8056 29.8976C31.8781 30.2254 32.7807 30.7054 33.5135 31.3376C33.6922 31.5014 33.7816 31.6888 33.7816 31.8995C33.7816 32.0869 33.728 32.2859 33.6208 32.4966L32.6824 34.639C32.5573 34.8966 32.4321 35.0254 32.307 35.0254C32.1998 35.0254 32.0479 34.9551 31.8512 34.8146C30.7073 33.9717 29.3578 33.5502 27.8028 33.5502C25.9618 33.5502 24.5319 34.2527 23.5131 35.6576C22.4943 37.0391 21.9849 39.0995 21.9849 41.839C21.9849 44.6019 22.5121 46.6741 23.5667 48.0556C24.6391 49.4371 26.0959 50.1278 27.9369 50.1278C29.617 50.1278 31.0291 49.7063 32.173 48.8634C32.3696 48.7229 32.5215 48.6527 32.6288 48.6527C32.7538 48.6527 32.879 48.7814 33.0041 49.039L34.0497 51.3922C34.1212 51.5561 34.157 51.6965 34.157 51.8137C34.157 51.9541 34.0497 52.1298 33.8352 52.3405C32.4411 53.6517 30.2872 54.3073 27.3738 54.3073ZM42.0611 54.3073C39.6839 54.3073 37.834 53.5113 36.5113 51.919C35.2065 50.3034 34.5541 48.1141 34.5541 45.3512C34.5541 42.5883 35.2065 40.4108 36.5113 38.8185C37.834 37.2029 39.6839 36.3951 42.0611 36.3951C44.4563 36.3951 46.3062 37.2029 47.611 38.8185C48.9337 40.4108 49.595 42.5883 49.595 45.3512C49.595 48.1141 48.9337 50.3034 47.611 51.919C46.3062 53.5113 44.4563 54.3073 42.0611 54.3073ZM42.0611 50.1278C43.0799 50.1278 43.8575 49.7297 44.3937 48.9337C44.9299 48.1376 45.198 46.9435 45.198 45.3512C45.198 43.7825 44.9299 42.6 44.3937 41.8039C43.8575 41.0078 43.0799 40.6098 42.0611 40.6098C41.0602 40.6098 40.2916 41.0078 39.7554 41.8039C39.2192 42.6 38.9511 43.7825 38.9511 45.3512C38.9511 46.92 39.2192 48.1141 39.7554 48.9337C40.2916 49.7297 41.0602 50.1278 42.0611 50.1278ZM53.0012 53.7805C52.5722 53.7805 52.2595 53.6634 52.0628 53.4293C51.8841 53.1717 51.7947 52.7853 51.7947 52.2702V31.4429C51.7947 30.9278 51.8841 30.5415 52.0628 30.2839C52.2595 30.0263 52.5722 29.8976 53.0012 29.8976H55.012C55.4588 29.8976 55.7717 30.0263 55.9504 30.2839C56.1291 30.518 56.2185 30.9044 56.2185 31.4429V52.2702C56.2185 52.7853 56.1291 53.1717 55.9504 53.4293C55.7717 53.6634 55.4588 53.7805 55.012 53.7805H53.0012ZM60.149 53.7805C59.7201 53.7805 59.4072 53.6634 59.2107 53.4293C59.0319 53.1717 58.9426 52.7853 58.9426 52.2702V31.4429C58.9426 30.9278 59.0319 30.5415 59.2107 30.2839C59.4072 30.0263 59.7201 29.8976 60.149 29.8976H62.1599C62.6067 29.8976 62.9194 30.0263 63.0982 30.2839C63.2769 30.518 63.3663 30.9044 63.3663 31.4429V52.2702C63.3663 52.7853 63.2769 53.1717 63.0982 53.4293C62.9194 53.6634 62.6067 53.7805 62.1599 53.7805H60.149ZM73.1952 54.3073C71.7474 54.3073 70.4426 53.9912 69.2808 53.359C68.1369 52.7035 67.2253 51.7317 66.5461 50.4439C65.8848 49.1326 65.5541 47.517 65.5541 45.5971C65.5541 42.6 66.1797 40.317 67.4309 38.7483C68.6999 37.1795 70.5051 36.3951 72.8466 36.3951C75.1524 36.3951 76.8951 37.1561 78.0748 38.6781C79.2723 40.2 79.8711 42.3659 79.8711 45.1756C79.8711 46.159 79.5315 46.6507 78.8523 46.6507H69.7366C69.7366 47.9151 70.0941 48.8985 70.809 49.601C71.5419 50.28 72.5428 50.6195 73.8118 50.6195C74.5625 50.6195 75.215 50.5259 75.769 50.3385C76.3231 50.1278 76.8593 49.8351 77.3777 49.4605C77.5564 49.3434 77.6816 49.2849 77.753 49.2849C77.8781 49.2849 77.9943 49.4136 78.1016 49.6712L78.8791 51.5678C78.9506 51.7317 78.9863 51.8722 78.9863 51.9893C78.9863 52.1766 78.888 52.3639 78.6914 52.5512C77.9765 53.16 77.1722 53.6049 76.2784 53.8859C75.3847 54.1668 74.357 54.3073 73.1952 54.3073ZM75.9031 43.6302C75.9031 42.4595 75.6528 41.5463 75.1524 40.8907C74.6519 40.2352 73.8923 39.9073 72.8735 39.9073C71.8546 39.9073 71.0771 40.2468 70.5409 40.9259C70.0047 41.5814 69.7366 42.483 69.7366 43.6302H75.9031ZM89.2205 54.3073C86.7715 54.3073 84.8772 53.5464 83.5362 52.0244C82.1957 50.479 81.5254 48.2663 81.5254 45.3863C81.5254 43.6069 81.8293 42.038 82.437 40.68C83.0626 39.322 83.9564 38.2683 85.1185 37.519C86.2797 36.7697 87.647 36.3951 89.2205 36.3951C90.3817 36.3951 91.3738 36.5474 92.1965 36.8517C93.0184 37.1561 93.7691 37.6126 94.4486 38.2215C94.6271 38.3853 94.7167 38.5727 94.7167 38.7834C94.7167 38.9708 94.6631 39.1698 94.5559 39.3805L93.6443 41.4527C93.5186 41.7337 93.3938 41.8741 93.2689 41.8741C93.1793 41.8741 93.0276 41.7922 92.8132 41.6283C92.2945 41.2068 91.7943 40.8907 91.3118 40.68C90.8292 40.4693 90.2477 40.3639 89.569 40.3639C88.443 40.3639 87.549 40.8205 86.888 41.7337C86.2445 42.6234 85.9228 43.841 85.9228 45.3863C85.9228 47.0253 86.2445 48.2546 86.888 49.0741C87.549 49.8937 88.4966 50.3034 89.7299 50.3034C90.4086 50.3034 90.9984 50.198 91.4994 49.9873C92.0172 49.7532 92.5182 49.4371 93.0008 49.039C93.2153 48.8752 93.367 48.7932 93.4566 48.7932C93.5815 48.7932 93.7063 48.9337 93.832 49.2146L94.824 51.4273C94.9128 51.6147 94.958 51.7668 94.958 51.8839C94.958 52.0713 94.8508 52.2585 94.6363 52.4459C93.8856 53.078 93.0813 53.5464 92.2233 53.8507C91.383 54.1551 90.3817 54.3073 89.2205 54.3073ZM103.47 54.3073C101.843 54.3073 100.609 53.722 99.7697 52.5512C98.9294 51.3805 98.5096 49.7648 98.5096 47.7044V40.9961H97.1959C96.7669 40.9961 96.4804 40.8907 96.3379 40.68C96.1947 40.4693 96.1234 40.0947 96.1234 39.5561V38.3971C96.1234 37.8585 96.1947 37.4839 96.3379 37.2732C96.4804 37.0391 96.7669 36.922 97.1959 36.922H98.5096V35.5171C98.5096 35.002 98.59 34.4985 98.7509 34.0068C98.9294 33.4917 99.1799 32.8595 99.5016 32.1102C99.6441 31.7824 99.7781 31.5717 99.9038 31.478C100.029 31.3609 100.252 31.3024 100.574 31.3024H101.807C102.218 31.3024 102.504 31.4195 102.665 31.6537C102.844 31.8878 102.933 32.2625 102.933 32.7776V36.922H105.588C106.017 36.922 106.302 37.0391 106.446 37.2732C106.588 37.4839 106.66 37.8585 106.66 38.3971V39.5561C106.66 40.0947 106.588 40.4693 106.446 40.68C106.302 40.8907 106.017 40.9961 105.588 40.9961H102.933V47.5639C102.933 48.4771 103.058 49.1326 103.309 49.5307C103.558 49.9288 103.979 50.1278 104.569 50.1278C104.926 50.1278 105.221 50.0693 105.454 49.9522C105.703 49.8351 105.981 49.6478 106.285 49.3902C106.427 49.2731 106.534 49.2146 106.606 49.2146C106.767 49.2146 106.901 49.3434 107.009 49.601L108.001 51.8137C108.089 52.001 108.135 52.1531 108.135 52.2702C108.135 52.4341 108.027 52.6097 107.813 52.7971C106.687 53.8039 105.239 54.3073 103.47 54.3073ZM111.424 34.5688C110.923 34.5688 110.53 34.3814 110.244 34.0068C109.958 33.6322 109.815 33.1756 109.815 32.6371V31.8293C109.815 31.2907 109.958 30.8341 110.244 30.4595C110.53 30.0849 110.923 29.8976 111.424 29.8976H112.979C113.497 29.8976 113.899 30.0849 114.186 30.4595C114.471 30.8341 114.615 31.2907 114.615 31.8293V32.6371C114.615 33.1756 114.471 33.6322 114.186 34.0068C113.899 34.3814 113.497 34.5688 112.979 34.5688H111.424ZM111.21 53.7805C110.762 53.7805 110.45 53.6634 110.271 53.4293C110.092 53.1717 110.003 52.7853 110.003 52.2702V38.4673C110.003 37.9287 110.092 37.5424 110.271 37.3083C110.45 37.0507 110.762 36.922 111.21 36.922H113.194C113.64 36.922 113.953 37.0507 114.132 37.3083C114.328 37.5659 114.427 37.9522 114.427 38.4673V52.2702C114.427 52.7853 114.328 53.1717 114.132 53.4293C113.953 53.6634 113.64 53.7805 113.194 53.7805H111.21ZM124.327 54.3073C121.949 54.3073 120.099 53.5113 118.777 51.919C117.472 50.3034 116.82 48.1141 116.82 45.3512C116.82 42.5883 117.472 40.4108 118.777 38.8185C120.099 37.2029 121.949 36.3951 124.327 36.3951C126.721 36.3951 128.571 37.2029 129.877 38.8185C131.199 40.4108 131.861 42.5883 131.861 45.3512C131.861 48.1141 131.199 50.3034 129.877 51.919C128.571 53.5113 126.721 54.3073 124.327 54.3073ZM124.327 50.1278C125.346 50.1278 126.123 49.7297 126.659 48.9337C127.196 48.1376 127.464 46.9435 127.464 45.3512C127.464 43.7825 127.196 42.6 126.659 41.8039C126.123 41.0078 125.346 40.6098 124.327 40.6098C123.326 40.6098 122.557 41.0078 122.021 41.8039C121.485 42.6 121.217 43.7825 121.217 45.3512C121.217 46.92 121.485 48.1141 122.021 48.9337C122.557 49.7297 123.326 50.1278 124.327 50.1278ZM135.293 53.7805C134.847 53.7805 134.525 53.6634 134.328 53.4293C134.15 53.1717 134.06 52.7853 134.06 52.2702V37.9405C134.06 37.5424 134.114 37.2732 134.221 37.1327C134.328 36.9922 134.543 36.922 134.864 36.922H137.009C137.224 36.922 137.384 36.9688 137.492 37.0624C137.599 37.1561 137.662 37.32 137.679 37.5541L137.76 38.7834C138.314 38.0341 139.011 37.4488 139.851 37.0273C140.691 36.6059 141.647 36.3951 142.72 36.3951C144.185 36.3951 145.356 36.9219 146.232 37.9756C147.126 39.0059 147.573 40.5513 147.573 42.6117V52.2702C147.573 52.7853 147.475 53.1717 147.278 53.4293C147.099 53.6634 146.795 53.7805 146.366 53.7805H144.355C143.909 53.7805 143.587 53.6634 143.39 53.4293C143.212 53.1717 143.122 52.7853 143.122 52.2702V42.9629C143.122 42.0498 142.97 41.3942 142.666 40.9961C142.362 40.598 141.862 40.399 141.165 40.399C140.414 40.399 139.78 40.6683 139.261 41.2068C138.743 41.7219 138.484 42.401 138.484 43.2439V52.2702C138.484 52.7853 138.394 53.1717 138.216 53.4293C138.037 53.6634 137.724 53.7805 137.277 53.7805H135.293Z" fill="#FCB839"/>
<path d="M159.752 54.3073C156.642 54.3073 154.229 53.2419 152.513 51.1112C150.815 48.957 149.966 45.8663 149.966 41.839C149.966 37.7883 150.797 34.6975 152.46 32.5668C154.14 30.4361 156.535 29.3707 159.645 29.3707C160.949 29.3707 162.129 29.5463 163.184 29.8976C164.256 30.2254 165.159 30.7054 165.892 31.3376C166.07 31.5014 166.16 31.6888 166.16 31.8995C166.16 32.0869 166.106 32.2859 165.999 32.4966L165.061 34.639C164.936 34.8966 164.81 35.0254 164.685 35.0254C164.578 35.0254 164.427 34.9551 164.23 34.8146C163.086 33.9717 161.736 33.5502 160.181 33.5502C158.34 33.5502 156.91 34.2527 155.891 35.6576C154.873 37.0391 154.363 39.0995 154.363 41.839C154.363 44.6019 154.89 46.6741 155.945 48.0556C157.018 49.4371 158.475 50.1278 160.315 50.1278C161.995 50.1278 163.408 49.7063 164.551 48.8634C164.748 48.7229 164.9 48.6527 165.007 48.6527C165.132 48.6527 165.258 48.7814 165.382 49.039L166.428 51.3922C166.499 51.5561 166.535 51.6965 166.535 51.8137C166.535 51.9541 166.428 52.1298 166.214 52.3405C164.819 53.6517 162.665 54.3073 159.752 54.3073ZM174.44 54.3073C172.063 54.3073 170.213 53.5113 168.89 51.919C167.585 50.3034 166.932 48.1141 166.932 45.3512C166.932 42.5883 167.585 40.4108 168.89 38.8185C170.213 37.2029 172.063 36.3951 174.44 36.3951C176.835 36.3951 178.685 37.2029 179.989 38.8185C181.312 40.4108 181.973 42.5883 181.973 45.3512C181.973 48.1141 181.312 50.3034 179.989 51.919C178.685 53.5113 176.835 54.3073 174.44 54.3073ZM174.44 50.1278C175.458 50.1278 176.236 49.7297 176.772 48.9337C177.308 48.1376 177.576 46.9435 177.576 45.3512C177.576 43.7825 177.308 42.6 176.772 41.8039C176.236 41.0078 175.458 40.6098 174.44 40.6098C173.438 40.6098 172.67 41.0078 172.134 41.8039C171.598 42.6 171.329 43.7825 171.329 45.3512C171.329 46.92 171.598 48.1141 172.134 48.9337C172.67 49.7297 173.438 50.1278 174.44 50.1278ZM185.407 53.7805C184.959 53.7805 184.638 53.6634 184.442 53.4293C184.262 53.1717 184.174 52.7853 184.174 52.2702V37.9405C184.174 37.5424 184.227 37.2732 184.334 37.1327C184.442 36.9922 184.656 36.922 184.978 36.922H187.123C187.337 36.922 187.489 36.9688 187.578 37.0624C187.686 37.1561 187.748 37.32 187.766 37.5541L187.873 38.6781C188.946 37.1561 190.286 36.3951 191.895 36.3951C192.413 36.3951 192.833 36.4536 193.155 36.5707C193.494 36.6644 193.789 36.8283 194.04 37.0624C194.201 37.2263 194.281 37.3903 194.281 37.5541C194.281 37.6244 194.263 37.7298 194.228 37.8702L193.557 40.5044C193.485 40.7854 193.37 40.9259 193.209 40.9259C193.137 40.9259 193.048 40.8907 192.941 40.8205C192.476 40.5161 191.939 40.3639 191.332 40.3639C190.545 40.3639 189.893 40.6566 189.375 41.242C188.856 41.8273 188.597 42.6117 188.597 43.5951V52.2702C188.597 52.7853 188.508 53.1717 188.329 53.4293C188.15 53.6634 187.837 53.7805 187.391 53.7805H185.407ZM197.188 53.7805C196.742 53.7805 196.42 53.6634 196.223 53.4293C196.045 53.1717 195.955 52.7853 195.955 52.2702V37.9405C195.955 37.5424 196.009 37.2732 196.116 37.1327C196.223 36.9922 196.438 36.922 196.76 36.922H198.904C199.119 36.922 199.28 36.9688 199.387 37.0624C199.494 37.1561 199.557 37.32 199.575 37.5541L199.655 38.7834C200.209 38.0341 200.906 37.4488 201.746 37.0273C202.587 36.6059 203.543 36.3951 204.615 36.3951C206.08 36.3951 207.252 36.9219 208.127 37.9756C209.021 39.0059 209.468 40.5513 209.468 42.6117V52.2702C209.468 52.7853 209.37 53.1717 209.173 53.4293C208.994 53.6634 208.69 53.7805 208.261 53.7805H206.251C205.804 53.7805 205.482 53.6634 205.285 53.4293C205.107 53.1717 205.017 52.7853 205.017 52.2702V42.9629C205.017 42.0498 204.866 41.3942 204.561 40.9961C204.257 40.598 203.757 40.399 203.06 40.399C202.309 40.399 201.675 40.6683 201.156 41.2068C200.638 41.7219 200.379 42.401 200.379 43.2439V52.2702C200.379 52.7853 200.289 53.1717 200.111 53.4293C199.932 53.6634 199.619 53.7805 199.172 53.7805H197.188ZM219.162 54.3073C217.715 54.3073 216.409 53.9912 215.248 53.359C214.104 52.7035 213.192 51.7317 212.513 50.4439C211.851 49.1326 211.521 47.517 211.521 45.5971C211.521 42.6 212.146 40.317 213.398 38.7483C214.667 37.1795 216.472 36.3951 218.814 36.3951C221.12 36.3951 222.862 37.1561 224.042 38.6781C225.239 40.2 225.838 42.3659 225.838 45.1756C225.838 46.159 225.498 46.6507 224.82 46.6507H215.704C215.704 47.9151 216.061 48.8985 216.776 49.601C217.509 50.28 218.51 50.6195 219.779 50.6195C220.53 50.6195 221.182 50.5259 221.736 50.3385C222.29 50.1278 222.826 49.8351 223.345 49.4605C223.523 49.3434 223.648 49.2849 223.72 49.2849C223.845 49.2849 223.962 49.4136 224.069 49.6712L224.846 51.5678C224.918 51.7317 224.954 51.8722 224.954 51.9893C224.954 52.1766 224.855 52.3639 224.659 52.5512C223.943 53.16 223.139 53.6049 222.246 53.8859C221.352 54.1668 220.324 54.3073 219.162 54.3073ZM221.87 43.6302C221.87 42.4595 221.62 41.5463 221.12 40.8907C220.619 40.2352 219.86 39.9073 218.841 39.9073C217.822 39.9073 217.044 40.2468 216.508 40.9259C215.972 41.5814 215.704 42.483 215.704 43.6302H221.87ZM229.262 53.7805C228.815 53.7805 228.493 53.6634 228.297 53.4293C228.118 53.1717 228.028 52.7853 228.028 52.2702V37.9405C228.028 37.5424 228.082 37.2732 228.189 37.1327C228.297 36.9922 228.511 36.922 228.833 36.922H230.978C231.192 36.922 231.345 36.9688 231.433 37.0624C231.541 37.1561 231.604 37.32 231.621 37.5541L231.728 38.6781C232.801 37.1561 234.141 36.3951 235.75 36.3951C236.269 36.3951 236.688 36.4536 237.01 36.5707C237.35 36.6644 237.645 36.8283 237.895 37.0624C238.056 37.2263 238.136 37.3903 238.136 37.5541C238.136 37.6244 238.119 37.7298 238.083 37.8702L237.412 40.5044C237.341 40.7854 237.225 40.9259 237.064 40.9259C236.992 40.9259 236.903 40.8907 236.796 40.8205C236.331 40.5161 235.795 40.3639 235.187 40.3639C234.401 40.3639 233.748 40.6566 233.23 41.242C232.712 41.8273 232.452 42.6117 232.452 43.5951V52.2702C232.452 52.7853 232.363 53.1717 232.184 53.4293C232.006 53.6634 231.693 53.7805 231.246 53.7805H229.262Z" fill="#6C584C"/>
</svg>
