<?xml version="1.0" encoding="iso-8859-1"?><svg viewBox="0 0 800 800" xmlns="http://www.w3.org/2000/svg" xmlns:xlink="http://www.w3.org/1999/xlink"><style>:root>svg{display:none}:root>svg:target{display:block}</style><svg viewBox="0 0 502.643 502.643" xml:space="preserve" id="about-us" xmlns="http://www.w3.org/2000/svg"><path d="M251.256 237.591c37.166 0 67.042-30.048 67.042-66.977.043-37.037-29.876-66.999-67.042-66.999-36.908 0-66.869 29.962-66.869 66.999 0 36.973 29.962 66.977 66.869 66.977zM305.032 248.506H197.653c-19.198 0-34.923 17.602-34.923 39.194v107.854c0 1.186.604 2.243.669 3.473h175.823c.129-1.229.626-2.286.626-3.473V287.7c.064-21.592-15.661-39.194-34.816-39.194zM431.588 269.559c29.832 0 53.754-24.008 53.754-53.668s-23.922-53.711-53.754-53.711c-29.617 0-53.582 24.051-53.582 53.711-.064 29.639 23.966 53.668 53.582 53.668zM474.708 278.317h-86.046c-15.445 0-28.064 14.107-28.064 31.472v86.413c0 .928.453 1.812.518 2.826h141.03c.065-1.014.496-1.898.496-2.826v-86.413c.065-17.365-12.532-31.472-27.934-31.472zM71.011 269.559c29.789 0 53.733-24.008 53.733-53.668S100.8 162.18 71.011 162.18c-29.638 0-53.603 24.051-53.603 53.711s23.965 53.668 53.603 53.668zM114.109 278.317H27.977C12.576 278.317 0 292.424 0 309.789v86.413c0 .928.453 1.812.539 2.826h141.03c.065-1.014.475-1.898.475-2.826v-86.413c.043-17.365-12.555-31.472-27.935-31.472z"/></svg><svg viewBox="0 0 20 32" id="arrow" xmlns="http://www.w3.org/2000/svg"><path d="M18.964 14.985 2.951.392a1.35 1.35 0 0 0-1.903 0 1.335 1.335 0 0 0 0 1.894L16.095 16 1.05 29.714a1.335 1.335 0 0 0 0 1.894 1.35 1.35 0 0 0 1.903 0l16.013-14.593c.28-.279.4-.648.382-1.014a1.33 1.33 0 0 0-.383-1.016Z"/></svg><svg viewBox="0 0 20 32" id="arrow-right" xmlns="http://www.w3.org/2000/svg"><path d="M18.964 14.985 2.951.392a1.35 1.35 0 0 0-1.903 0 1.335 1.335 0 0 0 0 1.894L16.095 16 1.05 29.714a1.335 1.335 0 0 0 0 1.894 1.35 1.35 0 0 0 1.903 0l16.013-14.593c.28-.279.4-.648.382-1.014a1.33 1.33 0 0 0-.383-1.016Z"/></svg><svg viewBox="0 0 1024 1024" class="dicon" id="blog" xmlns="http://www.w3.org/2000/svg"><path d="M885.746 741.427H514.972l-105.37 105.395c-.788.764-1.77 1.09-2.623 1.726-.787.59-1.333 1.42-2.228 1.922-.416.218-.875.218-1.29.416-1.53.742-3.08 1.158-4.718 1.55-1.224.284-2.404.614-3.627.7-1.551.11-3.037-.086-4.566-.306-1.376-.195-2.709-.35-4.042-.786-1.2-.416-2.292-1.028-3.43-1.64-1.551-.808-2.971-1.683-4.304-2.862-.35-.306-.787-.414-1.114-.72-.547-.548-.745-1.268-1.224-1.836-.72-.875-1.66-1.508-2.25-2.492L314.28 741.427H169.847c-49.419 0-89.487-40.07-89.487-89.485V226.875c0-49.42 40.07-89.487 89.487-89.487h715.9c49.42 0 89.486 40.069 89.486 89.487v425.067c.001 49.417-40.067 89.485-89.487 89.485zM307.07 729.26c-1.222-2.054-1.77-4.284-2.25-6.511.612 3.451 1.9 6.555 3.89 9.284l-1.64-2.773zm4.895-26.938c-.59.524-1.202.938-1.726 1.506.502-.546 1.158-1.006 1.726-1.506zm-7.669 17.87c-.087-1.18.153-2.338.264-3.518-.088.832-.482 1.53-.482 2.382 0 .393.197.742.218 1.136zm2.316-10.988c-.307.61-.656 1.158-.917 1.812.24-.635.61-1.203.917-1.812zm623.878-482.33c0-24.71-20.033-44.743-44.744-44.743H169.847c-24.71 0-44.744 20.034-44.744 44.743V651.94c0 24.71 20.035 44.743 44.744 44.743h156.602c-.326 0-.612.174-.938.195 8.04-.327 16.015 3.344 20.318 10.597l51.821 87.435 91.74-91.76c4.609-4.587 10.66-6.663 16.69-6.464h379.667c24.711 0 44.744-20.034 44.744-44.743V226.874zm-613.48 472.06c.896-.416 1.813-.612 2.73-.896-.916.285-1.856.48-2.73.896zm412.133-225.97c-24.71 0-44.744-20.032-44.744-44.743 0-24.71 20.032-44.744 44.744-44.744 24.71 0 44.743 20.034 44.743 44.744s-20.034 44.744-44.743 44.744zm-201.347 0c-24.71 0-44.744-20.032-44.744-44.743 0-24.71 20.035-44.744 44.744-44.744s44.744 20.034 44.744 44.744-20.036 44.744-44.744 44.744zm-201.347 0c-24.71 0-44.744-20.032-44.744-44.743 0-24.71 20.035-44.744 44.744-44.744s44.743 20.034 44.743 44.744-20.033 44.744-44.743 44.744z"/></svg><svg viewBox="0 0 36 34" id="btn-grid" xmlns="http://www.w3.org/2000/svg"><path d="M6.044 26.445H1.511c-.834 0-1.511.676-1.511 1.51v4.534C0 33.324.677 34 1.511 34h4.533c.835 0 1.512-.676 1.512-1.511v-4.533c0-.835-.677-1.511-1.512-1.511ZM20.211 26.445h-4.533c-.835 0-1.511.676-1.511 1.51v4.534c0 .835.676 1.511 1.51 1.511h4.534c.835 0 1.511-.676 1.511-1.511v-4.533c0-.835-.676-1.511-1.51-1.511ZM34.378 26.445h-4.534c-.834 0-1.51.676-1.51 1.51v4.534c0 .835.676 1.511 1.51 1.511h4.534c.834 0 1.51-.676 1.51-1.511v-4.533c0-.835-.676-1.511-1.51-1.511ZM6.044 13.222H1.511C.677 13.222 0 13.9 0 14.733v4.534c0 .834.677 1.51 1.511 1.51h4.533c.835 0 1.512-.676 1.512-1.51v-4.534c0-.834-.677-1.51-1.512-1.51ZM20.211 13.222h-4.533c-.835 0-1.511.677-1.511 1.511v4.534c0 .834.676 1.51 1.51 1.51h4.534c.835 0 1.511-.676 1.511-1.51v-4.534c0-.834-.676-1.51-1.51-1.51ZM34.378 13.222h-4.534c-.834 0-1.51.677-1.51 1.511v4.534c0 .834.676 1.51 1.51 1.51h4.534c.834 0 1.51-.676 1.51-1.51v-4.534c0-.834-.676-1.51-1.51-1.51ZM6.044 0H1.511C.677 0 0 .677 0 1.511v4.533c0 .835.677 1.512 1.511 1.512h4.533c.835 0 1.512-.677 1.512-1.512V1.511C7.556.677 6.879 0 6.044 0ZM20.211 0h-4.533c-.835 0-1.511.677-1.511 1.511v4.533c0 .835.676 1.512 1.51 1.512h4.534c.835 0 1.511-.677 1.511-1.512V1.511c0-.834-.676-1.511-1.51-1.511ZM34.378 0h-4.534c-.834 0-1.51.677-1.51 1.511v4.533c0 .835.676 1.512 1.51 1.512h4.534c.834 0 1.51-.677 1.51-1.512V1.511c0-.834-.676-1.511-1.51-1.511Z"/></svg><svg viewBox="0 0 35 35" id="btn-list" xmlns="http://www.w3.org/2000/svg"><path d="M32.4 28h-7.8c-1.436 0-2.6.627-2.6 1.4v4.2c0 .773 1.164 1.4 2.6 1.4h7.8c1.436 0 2.6-.627 2.6-1.4v-4.2c0-.773-1.164-1.4-2.6-1.4ZM10.4 28H2.6c-1.436 0-2.6.627-2.6 1.4v4.2c0 .773 1.164 1.4 2.6 1.4h7.8c1.436 0 2.6-.627 2.6-1.4v-4.2c0-.773-1.164-1.4-2.6-1.4ZM32.4 14h-7.8c-1.436 0-2.6.627-2.6 1.4v4.2c0 .773 1.164 1.4 2.6 1.4h7.8c1.436 0 2.6-.627 2.6-1.4v-4.2c0-.773-1.164-1.4-2.6-1.4ZM10.4 14H2.6c-1.436 0-2.6.627-2.6 1.4v4.2c0 .773 1.164 1.4 2.6 1.4h7.8c1.436 0 2.6-.627 2.6-1.4v-4.2c0-.773-1.164-1.4-2.6-1.4ZM32.4 0h-7.8C23.164 0 22 .627 22 1.4v4.2c0 .773 1.164 1.4 2.6 1.4h7.8c1.436 0 2.6-.627 2.6-1.4V1.4C35 .627 33.836 0 32.4 0ZM10.4 0H2.6C1.164 0 0 .627 0 1.4v4.2C0 6.373 1.164 7 2.6 7h7.8c1.436 0 2.6-.627 2.6-1.4V1.4C13 .627 11.836 0 10.4 0Z"/></svg><svg viewBox="0 0 1024 1024" class="gicon" id="cart" xmlns="http://www.w3.org/2000/svg"><path d="M800.8 952c-31.2 0-56-24.8-56-56s24.8-56 56-56 56 24.8 56 56-25.6 56-56 56zm-448 0c-31.2 0-56-24.8-56-56s24.8-56 56-56 56 24.8 56 56-25.6 56-56 56zM344 792c-42.4 0-79.2-33.6-84-76l-54.4-382.4-31.2-178.4C172 136 155.2 120 136.8 120H96c-13.6 0-24-10.4-24-24s10.4-24 24-24h40.8c42.4 0 80 33.6 85.6 76l31.2 178.4L308 709.6c1.6 18.4 18.4 34.4 36 34.4h520c13.6 0 24 10.4 24 24s-10.4 24-24 24H344zm40-128c-12.8 0-23.2-9.6-24-22.4-.8-6.4 1.6-12.8 5.6-17.6s10.4-8 16-8L816 584c19.2 0 36-15.2 38.4-33.6l50.4-288c1.6-13.6-2.4-28-10.4-36.8-5.6-6.4-12.8-9.6-21.6-9.6H320c-13.6 0-24-10.4-24-24s10.4-24 24-24h554.4c22.4 0 42.4 9.6 57.6 25.6 16.8 19.2 24.8 47.2 21.6 75.2l-50.4 288c-4.8 41.6-42.4 74.4-84 74.4l-432 32c-1.6.8-2.4.8-3.2.8z"/></svg><svg viewBox="0 0 23 23" id="contact" xmlns="http://www.w3.org/2000/svg"><path d="m21.463 16.589-3.194-3.196a2.276 2.276 0 0 0-1.617-.662c-.64 0-1.242.252-1.698.708l-1.244 1.243c-.966-.537-2.25-1.275-3.583-2.609-1.332-1.332-2.07-2.612-2.61-3.583l1.244-1.244c.926-.927.945-2.415.043-3.316L5.61.737A2.266 2.266 0 0 0 3.993.072 2.39 2.39 0 0 0 2.324.75C2.05.97.674 2.186.161 4.69c-.718 3.507.932 6.882 5.695 11.648 5.322 5.32 9.865 5.733 11.13 5.733.264 0 .423-.017.465-.021 2.482-.291 3.37-1.393 4.02-2.198.84-1.043.837-2.416-.008-3.264Zm-1.06 2.403c-.61.756-1.186 1.47-3.111 1.697-.001 0-.107.011-.306.011-1.132 0-5.211-.384-10.16-5.331C2.433 10.974.891 7.96 1.504 4.966c.448-2.185 1.635-3.114 1.682-3.15l.04-.03.036-.036a1.03 1.03 0 0 1 .73-.307c.25 0 .479.093.648.263L7.834 4.9c.368.367.348.985-.043 1.377L6.384 7.683l-.023.024c-.367.404-.324.95-.122 1.306.583 1.052 1.382 2.493 2.918 4.03 1.532 1.531 2.97 2.33 4.02 2.911.104.06.321.158.593.158.32 0 .615-.136.832-.383l1.321-1.32c.197-.198.456-.306.728-.306.25 0 .48.093.649.261l3.192 3.193c.405.407.238 1.03-.09 1.435ZM13.388 3.432c1.178.135 2.566.849 3.534 1.818.978.977 1.693 2.379 1.822 3.57a.686.686 0 1 0 1.364-.148c-.164-1.506-1.013-3.189-2.216-4.392-1.192-1.192-2.858-2.04-4.347-2.21a.686.686 0 1 0-.157 1.362ZM12.748 6.304c.637.073 1.519.546 2.096 1.123.583.583 1.056 1.473 1.126 2.117a.686.686 0 1 0 1.363-.147c-.119-1.1-.849-2.269-1.52-2.94-.664-.664-1.821-1.39-2.909-1.516a.685.685 0 1 0-.156 1.363Z"/></svg><svg viewBox="0 0 20 14" id="email" xmlns="http://www.w3.org/2000/svg"><path d="M18.25.125H1.75A1.375 1.375 0 0 0 .375 1.5v11a1.375 1.375 0 0 0 1.375 1.375h16.5a1.375 1.375 0 0 0 1.375-1.375v-11A1.375 1.375 0 0 0 18.25.125ZM16.738 1.5 10 6.161 3.263 1.5h13.475ZM1.75 12.5V2.126l7.858 5.438a.687.687 0 0 0 .784 0l7.858-5.438V12.5H1.75Z"/></svg><svg viewBox="0 0 32 29" id="favorite" xmlns="http://www.w3.org/2000/svg"><path d="M29.665 2.777C28.087.987 25.897 0 23.5 0c-3.372 0-5.506 2.014-6.703 3.703-.311.438-.575.878-.797 1.292a12.245 12.245 0 0 0-.797-1.292C14.006 2.013 11.872 0 8.5 0 6.103 0 3.913.986 2.335 2.777.829 4.486 0 6.774 0 9.22c0 2.662 1.04 5.139 3.272 7.793 1.994 2.373 4.864 4.818 8.187 7.65a385.452 385.452 0 0 1 3.883 3.34l.04.035a.935.935 0 0 0 1.236 0l.04-.035c1.364-1.193 2.644-2.284 3.883-3.34 3.323-2.832 6.193-5.277 8.187-7.65C30.96 14.36 32 11.883 32 9.22c0-2.446-.83-4.734-2.335-6.443Zm-10.34 20.46c-1.068.909-2.167 1.845-3.325 2.852-1.158-1.007-2.257-1.943-3.325-2.853-6.503-5.542-10.8-9.203-10.8-14.016 0-1.99.663-3.837 1.866-5.203A6.258 6.258 0 0 1 8.5 1.875c2.57 0 4.232 1.584 5.174 2.912a11.113 11.113 0 0 1 1.435 2.854.937.937 0 0 0 1.782 0c.15-.461.591-1.662 1.436-2.854.94-1.328 2.602-2.912 5.173-2.912 1.851 0 3.541.76 4.759 2.142 1.203 1.366 1.866 3.213 1.866 5.203 0 4.813-4.297 8.474-10.8 14.016Z"/></svg><svg viewBox="0 0 32 23" id="icon-del" xmlns="http://www.w3.org/2000/svg"><path d="m31.917 14.34-1.62-2.479a3.866 3.866 0 0 0-3.25-1.75h-4.19v-2.41a2.671 2.671 0 0 0-2.669-2.668h-7.841A4.986 4.986 0 0 0 7.459.99 4.984 4.984 0 0 0 2.48 5.97c0 1.726.884 3.249 2.222 4.142H.508a.508.508 0 1 0 0 1.016h5.08v1.016H3.554a.508.508 0 0 0 0 1.016h2.032v1.015H.508a.508.508 0 1 0 0 1.016h5.08v2.25a2.548 2.548 0 0 0-1.525 2.328v.502c0 .28.228.508.509.508h4.505a2.811 2.811 0 0 0 2.732 2.173c1.33 0 2.445-.93 2.733-2.173h9.773a2.812 2.812 0 0 0 2.733 2.173c1.329 0 2.444-.93 2.733-2.173h1.711c.28 0 .508-.227.508-.508v-5.654a.508.508 0 0 0-.083-.278ZM3.497 5.97a3.968 3.968 0 0 1 3.962-3.963 3.967 3.967 0 0 1 3.963 3.963 3.967 3.967 0 0 1-3.963 3.963A3.968 3.968 0 0 1 3.496 5.97Zm3.106 9.221H7.62a.508.508 0 1 0 0-1.016H6.603V13.16h3.556a.508.508 0 1 0 0-1.016H6.603v-1.016h6.603a.508.508 0 0 0 0-1.016h-2.99a4.976 4.976 0 0 0 2.218-4.064h7.755c.91 0 1.652.742 1.652 1.653v9.522H6.603v-2.031Zm15.238 4.572H14.59a2.797 2.797 0 0 0-.722-1.524h7.974v1.524ZM6.61 18.239h3.142c-.382.413-.642.94-.721 1.524H5.079a1.532 1.532 0 0 1 1.53-1.524Zm5.2 3.697a1.794 1.794 0 0 1-1.793-1.792c0-.988.805-1.792 1.792-1.792.989 0 1.793.804 1.793 1.792s-.804 1.792-1.793 1.792Zm15.238 0a1.794 1.794 0 0 1-1.792-1.792c0-.988.804-1.792 1.792-1.792s1.792.804 1.792 1.792-.804 1.792-1.792 1.792Zm3.936-2.173h-1.157a2.81 2.81 0 0 0-2.78-2.427 2.81 2.81 0 0 0-2.779 2.427h-1.41v-8.635h4.188c.976 0 1.874.482 2.401 1.288l1.537 2.352v4.995Z"/><path d="M27.878 20.144a.83.83 0 1 1-1.661 0 .83.83 0 0 1 1.662 0ZM12.64 20.144a.83.83 0 1 1-1.661 0 .83.83 0 0 1 1.661 0ZM8.127 5.97V3.748a.508.508 0 1 0-1.016 0v2.056L6.074 7.226a.507.507 0 1 0 .821.598L8.03 6.27a.508.508 0 0 0 .097-.3ZM26.876 11.636h-.971a.508.508 0 0 0-.508.508v3.555c0 .281.227.508.508.508h3.418a.874.874 0 0 0 .764-.44.872.872 0 0 0 .003-.88l-1.187-2.075a2.34 2.34 0 0 0-2.027-1.176Zm-.463 3.556v-2.54h.463c.473 0 .911.254 1.145.664l1.072 1.875h-2.68Z"/></svg><svg viewBox="0 0 27 27" id="instagram" xmlns="http://www.w3.org/2000/svg"><path d="M13.499 8.3a5.202 5.202 0 1 0 0 10.403 5.202 5.202 0 0 0 0-10.404Zm0 8.58a3.38 3.38 0 1 1 0-6.76 3.38 3.38 0 0 1 0 6.76ZM18.907 9.32a1.213 1.213 0 1 0 0-2.425 1.213 1.213 0 0 0 0 2.426Z"/><path d="M23.1 6.875a5.18 5.18 0 0 0-2.963-2.96 7.432 7.432 0 0 0-2.459-.473c-1.083-.048-1.427-.061-4.174-.061-2.747 0-3.1 0-4.174.06-.84.017-1.67.177-2.457.473a5.175 5.175 0 0 0-2.962 2.961 7.408 7.408 0 0 0-.471 2.46c-.048 1.082-.063 1.425-.063 4.173 0 2.747 0 3.097.063 4.174a7.42 7.42 0 0 0 .471 2.46 5.186 5.186 0 0 0 2.964 2.961 7.406 7.406 0 0 0 2.458.506c1.083.048 1.426.062 4.174.062 2.747 0 3.099 0 4.173-.061a7.443 7.443 0 0 0 2.46-.472 5.19 5.19 0 0 0 2.962-2.962 7.408 7.408 0 0 0 .471-2.46c.048-1.082.063-1.425.063-4.173s0-3.097-.063-4.174a7.404 7.404 0 0 0-.474-2.494ZM21.73 17.6a5.674 5.674 0 0 1-.35 1.899 3.36 3.36 0 0 1-1.927 1.924 5.61 5.61 0 0 1-1.878.35c-1.07.05-1.37.062-4.111.062-2.743 0-3.023 0-4.112-.062a5.58 5.58 0 0 1-1.878-.35 3.359 3.359 0 0 1-1.934-1.924 5.715 5.715 0 0 1-.35-1.878c-.048-1.069-.06-1.37-.06-4.11 0-2.742 0-3.022.06-4.113.008-.648.126-1.29.35-1.898a3.36 3.36 0 0 1 1.934-1.926 5.636 5.636 0 0 1 1.878-.35c1.07-.048 1.37-.061 4.112-.061 2.741 0 3.023 0 4.11.062a5.58 5.58 0 0 1 1.88.35 3.366 3.366 0 0 1 1.925 1.925c.221.602.34 1.237.35 1.878.049 1.07.06 1.37.06 4.112 0 2.74 0 3.035-.048 4.11h-.012Z"/></svg><svg viewBox="0 0 15 21" id="location" xmlns="http://www.w3.org/2000/svg"><path d="M7.568 4.602a2.688 2.688 0 0 0-2.684 2.685A2.688 2.688 0 0 0 7.568 9.97a2.688 2.688 0 0 0 2.685-2.684 2.688 2.688 0 0 0-2.685-2.685Zm0 4.602a1.92 1.92 0 0 1-1.917-1.917 1.92 1.92 0 0 1 1.917-1.918 1.92 1.92 0 0 1 1.918 1.918 1.92 1.92 0 0 1-1.918 1.917Z"/><path d="M12.701 2.154A7.307 7.307 0 0 0 7.501 0a7.306 7.306 0 0 0-5.2 2.154C-.27 4.724-.59 9.561 1.607 12.491L7.501 21l5.883-8.498c2.207-2.941 1.888-7.778-.683-10.348Zm.061 9.9-5.261 7.598-5.27-7.61C.237 9.384.523 5.016 2.843 2.696A6.544 6.544 0 0 1 7.501.767c1.76 0 3.413.685 4.658 1.93 2.32 2.32 2.606 6.687.603 9.357Z"/></svg><svg viewBox="0 0 20 20" id="lupa" xmlns="http://www.w3.org/2000/svg"><path d="M8.242 16.472C3.697 16.472 0 12.777 0 8.236S3.697 0 8.242 0c4.545 0 8.242 3.695 8.242 8.236s-3.697 8.236-8.242 8.236Zm0-14.91c-3.683 0-6.68 2.994-6.68 6.674s2.997 6.675 6.68 6.675 6.68-2.995 6.68-6.675c0-3.68-2.997-6.675-6.68-6.675Zm11.53 18.21a.78.78 0 0 0 0-1.105l-3.497-3.493a.782.782 0 0 0-1.105 1.104l3.496 3.493a.779.779 0 0 0 1.105 0Z"/></svg><svg viewBox="0 0 16 16" id="star" xmlns="http://www.w3.org/2000/svg"><g clip-path="url(#oa)"><path d="M.023 6.164a.469.469 0 0 1 .378-.319l4.96-.72L7.58.63a.469.469 0 0 1 .84 0l2.219 4.495 4.96.72a.469.469 0 0 1 .26.8l-3.59 3.498.848 4.94a.469.469 0 0 1-.68.495L8 13.245l-4.436 2.333a.469.469 0 0 1-.68-.495l.847-4.94-3.59-3.498a.469.469 0 0 1-.118-.48Z"/></g><defs><clipPath id="oa"><path transform="matrix(-1 0 0 1 16 0)" d="M0 0h16v16H0z"/></clipPath></defs></svg><svg viewBox="0 0 33 32" id="telegram" xmlns="http://www.w3.org/2000/svg"><g clip-path="url(#pa)"><path d="m13.328 20.241-.526 7.446c.753 0 1.078-.326 1.469-.716l3.526-3.393 7.306 5.387c1.34.753 2.284.357 2.646-1.24l4.796-22.63.001-.002c.425-1.994-.716-2.774-2.022-2.285L2.334 13.676c-1.924.752-1.895 1.832-.327 2.322l7.207 2.257 16.74-10.548c.788-.526 1.505-.235.916.29L13.328 20.241Z"/></g><defs><clipPath id="pa"><path transform="translate(.86)" d="M0 0h31.778v32H0z"/></clipPath></defs></svg><svg viewBox="0 0 25 32" id="user-link" xmlns="http://www.w3.org/2000/svg"><path d="M22.678 19.943a12.5 12.5 0 0 0-4.085-3.779 9.242 9.242 0 0 0 3.093-6.902C21.686 4.155 17.531 0 12.424 0S3.162 4.155 3.162 9.262a9.242 9.242 0 0 0 3.092 6.902 12.5 12.5 0 0 0-4.085 3.779A12.322 12.322 0 0 0 0 26.936V32h24.848v-5.064c0-2.505-.75-4.923-2.17-6.993ZM5.101 9.263c0-4.039 3.285-7.324 7.323-7.324s7.323 3.285 7.323 7.323-3.285 7.323-7.323 7.323S5.1 13.3 5.1 9.262ZM1.939 30.06v-3.125c0-4.109 2.38-7.794 6.101-9.516a9.205 9.205 0 0 0 4.384 1.104c1.585 0 3.078-.4 4.383-1.104 3.721 1.722 6.101 5.407 6.101 9.516v3.125H1.94Z"/></svg><svg viewBox="0 0 32 32" id="youtube" xmlns="http://www.w3.org/2000/svg"><g clip-path="url(#ra)"><path d="m31.24 7.905.039.262c-.384-1.372-1.42-2.43-2.738-2.816l-.028-.007c-2.478-.677-12.447-.677-12.447-.677s-9.944-.014-12.446.677A4.045 4.045 0 0 0 .862 8.14l-.007.028c-.925 4.868-.932 10.717.041 15.93l-.04-.265c.383 1.372 1.42 2.43 2.737 2.816l.028.007c2.475.678 12.447.678 12.447.678s9.942 0 12.446-.678a4.044 4.044 0 0 0 2.76-2.795l.006-.028c.421-2.264.662-4.87.662-7.53l-.001-.295.001-.307a43.3 43.3 0 0 0-.703-7.795ZM12.885 20.868v-9.724l8.297 4.87-8.297 4.854Z"/></g><defs><clipPath id="ra"><path transform="translate(.164)" d="M0 0h31.778v32H0z"/></clipPath></defs></svg></svg>